<svg id="Layer_1" data-name="Layer 1" xmlns="http://www.w3.org/2000/svg" xmlns:xlink="http://www.w3.org/1999/xlink" viewBox="0 0 1248.2 625.5">
  <defs>
    <clipPath id="clip-path" transform="translate(-189.6 -123.5)">
      <path id="alphabet-t" d="M1343.1,655V594.4h-34v-8.7h34V522.8h9v62.9h35.5v8.7h-35.5V655c0,9.8,5.2,18.8,16.2,18.8,7.2,0,12.7-1.8,17.6-7.2v11.2c-5.2,3.5-11.6,4.6-17.6,4.6C1352.4,682.4,1343.1,669.7,1343.1,655Z" fill="none"/>
    </clipPath>
    <clipPath id="clip-path-2" transform="translate(-189.6 -123.5)">
      <path id="alphabet-e" d="M1256.6,673.8c8.3,0,20.2-1.8,29.4-8.1v10.1c-9.8,5.2-21.1,6.6-28.9,6.6-30.3,0-52.2-22.8-52.2-49.6s21.9-49.7,49.1-49.7c15.5,0,27.4,7.8,38.1,18.5l-63.5,62.6C1235.8,670.3,1245.6,673.8,1256.6,673.8Zm-34.4-16.2,56.9-55.7c-7-5.5-15.9-10.1-25.1-10.1-22.3,0-40.2,18.8-40.2,41A40.1,40.1,0,0,0,1222.2,657.6Z" fill="none"/>
    </clipPath>
    <clipPath id="clip-path-3" transform="translate(-189.6 -123.5)">
      <path id="alphabet-b" d="M1169.1,630.5c0,30-22.2,51.9-49.4,51.9a49.1,49.1,0,0,1-49-49V474.9h8.9V633.4a40.3,40.3,0,0,0,40.1,40.4c22.3,0,40.4-18.2,40.4-43.3,0-13-6-31.5-22.5-37,.3,6.7-3.7,12.4-10.9,12.4a11.2,11.2,0,0,1-11.3-10.9c0-7.2,5.8-11.9,12.7-11.9C1155.5,583.1,1169.1,608.8,1169.1,630.5Z" fill="none"/>
    </clipPath>
    <clipPath id="clip-path-4" transform="translate(-189.6 -123.5)">
      <path id="alphabet-a2" d="M1041.2,666.8v11.3c-5.5,3.5-11.5,4.6-17.9,4.6-14.4,0-23.6-10.9-24.5-25.1a45.8,45.8,0,0,1-40.7,24.8c-27.1,0-49.1-22.8-49.1-49.6s22-49.7,49.1-49.7c17,0,32,9.3,40.4,24V585.7h8.9v69.6c0,9.8,5,18.5,15.9,18.5C1030.5,673.8,1036,672.3,1041.2,666.8Zm-42.7-38.9c0-17.9-17.9-36.1-40.4-36.1s-40.1,18.8-40.1,41,17.9,41,40.1,41,40.4-18.2,40.4-36.1Z" fill="none"/>
    </clipPath>
    <clipPath id="clip-path-5" transform="translate(-189.6 -123.5)">
      <path id="alphabet-h" d="M891.1,666.6v11.2c-5.2,3.5-11.5,4.6-16.7,4.6-16.8,0-26-12.7-26-27.4V623.8c0-19.3-10.1-32-27.1-32-19.7,0-33.8,17-33.8,34.9v53.1h-9V474.9h9V604.2c5.8-12.1,16.7-21.1,33.2-21.1,22.5,0,36.6,16.5,36.6,40.7V655c0,9.8,5.2,18.5,17.9,18.5A20.2,20.2,0,0,0,891.1,666.6Z" fill="none"/>
    </clipPath>
    <clipPath id="clip-path-6" transform="translate(-189.6 -123.5)">
      <path id="alphabet-p" d="M731.2,632.8c0,26.8-22.2,49.6-49.4,49.6a45.1,45.1,0,0,1-40.1-24.5v86.3h-8.9V585.7h8.9v22a45.2,45.2,0,0,1,40.1-24.6C709,583.1,731.2,605.7,731.2,632.8Zm-8.9,0c0-22.2-17.9-41-40.2-41s-40.4,18.2-40.4,36.1v9.8c0,17.9,17.3,36.1,40.4,36.1S722.3,655,722.3,632.8Z" fill="none"/>
    </clipPath>
    <clipPath id="clip-path-7" transform="translate(-189.6 -123.5)">
      <path id="Alphabet-l" d="M585.4,682.4c-15.8,0-24.8-12.7-24.8-27.4V474.9h9V655c0,9.8,5.2,18.5,15.8,18.5,7.3,0,12.7-1.5,17.9-6.9v11.2C597.8,681.3,591.8,682.4,585.4,682.4Z" fill="none"/>
    </clipPath>
    <clipPath id="clip-path-8" transform="translate(-189.6 -123.5)">
      <path id="Alphabet-a1" d="M531.2,668v10.7a35,35,0,0,1-16.2,3.7c-16.5,0-25.4-13.5-25.4-28.8V634.8H406.5v45h-8.7v-45H371.3v-8.9h26.5V571.3c0-19.3,5.8-39.8,21.1-52.5l5.8,6.9c-13.6,11-18.2,28.9-18.2,45.6v54.6h83.1V551.1c0-42.4-35.2-70.7-76.2-70.7s-74.5,26.8-74.5,62.9c0,11.8,2.3,22.5,9.3,32.3l-7,5.2c-8.3-11.2-11.2-23.9-11.2-37.5,0-41.6,38.9-71.6,83.4-71.6s84.9,32.1,84.9,79.4V653.6c0,10.4,5.2,20.2,16.7,20.2C520.8,673.8,526.8,672.3,531.2,668Z" fill="none"/>
    </clipPath>
    <clipPath id="clip-path-9" transform="translate(-189.6 -123.5)">
      <path id="Photo-o2" d="M1438.1,286.4c0,27.1-22.2,49.6-49.3,49.6s-49.1-22.5-49.1-49.6,21.9-49.7,49.1-49.7S1438.1,259.3,1438.1,286.4Zm-8.9,0a42.9,42.9,0,0,0-4.7-18.8,10.4,10.4,0,0,1-8.9,4.9,11.5,11.5,0,0,1-11.3-11.2,11.3,11.3,0,0,1,5.8-9.5,39.1,39.1,0,0,0-21.3-6.1c-22.3,0-40.2,18.5-40.2,40.7s17.9,41,40.2,41S1429.2,308.6,1429.2,286.4Z" fill="none"/>
    </clipPath>
    <clipPath id="clip-path-10" transform="translate(-189.6 -123.5)">
      <path id="Photo-t" d="M1271.6,308.6V248h-34.1v-8.7h34.1V176.4h8.9v62.9H1316V248h-35.5v60.6c0,9.8,5.2,18.8,16.2,18.8,7.2,0,12.7-1.7,17.6-7.2v11.2c-5.2,3.5-11.6,4.6-17.6,4.6C1280.8,336,1271.6,323.3,1271.6,308.6Z" fill="none"/>
    </clipPath>
    <clipPath id="clip-path-11" transform="translate(-189.6 -123.5)">
      <path id="Photo-o1" d="M1216.7,286.4c0,27.1-22.2,49.6-49.3,49.6s-49.1-22.5-49.1-49.6,21.9-49.7,49.1-49.7S1216.7,259.3,1216.7,286.4Zm-8.9,0a44.2,44.2,0,0,0-4.6-18.8,10.7,10.7,0,0,1-9,4.9,11,11,0,0,1-5.5-20.7,39.1,39.1,0,0,0-21.3-6.1c-22.3,0-40.2,18.5-40.2,40.7s17.9,41,40.2,41S1207.8,308.6,1207.8,286.4Z" fill="none"/>
    </clipPath>
    <clipPath id="clip-path-12" transform="translate(-189.6 -123.5)">
      <path id="Photo-h" d="M1100.4,320.2v11.2c-5.2,3.5-11.6,4.6-16.8,4.6-16.7,0-25.9-12.7-25.9-27.4V277.4c0-19.3-10.1-32-27.2-32-19.6,0-33.7,17-33.7,34.9v53.1h-9V128.5h9V257.8c5.7-12.1,16.7-21.1,33.2-21.1,22.5,0,36.6,16.5,36.6,40.7v31.2c0,9.8,5.2,18.5,17.9,18.5C1090,327.1,1095.5,325.7,1100.4,320.2Z" fill="none"/>
    </clipPath>
    <clipPath id="clip-path-13" transform="translate(-189.6 -123.5)">
      <path id="Photo-P" d="M790.1,331.4V320.2c3.4,4.6,11,7.2,16.7,7.2,11.3,0,16.2-12.1,16.2-21.7V166h8.7v90.4a111.8,111.8,0,0,0,43.2,8.3c32.7,0,57.2-28,57.2-60,0-50.5-43.3-70.7-88-70.7-46.2,0-89.8,27.7-89.8,77.6,0,11.3,4.9,26.6,13.3,34.7l-6.1,6.3c-10.1-9.5-16.2-27.4-16.2-41,0-55.1,47.7-86.3,98.8-86.3s96.9,24,96.9,79.4c0,38.1-30,68.7-66.1,68.7a122.4,122.4,0,0,1-43.2-7.5v39.8c0,14.5-8.7,30.3-24.9,30.3A30.2,30.2,0,0,1,790.1,331.4Z" fill="none"/>
    </clipPath>
    <clipPath id="clip-path-14" transform="translate(-189.6 -123.5)">
      <path id="The-e" d="M607.7,327.4c8.3,0,20.2-1.7,29.4-8.1v10.1c-9.8,5.2-21.1,6.6-28.9,6.6-30.3,0-52.2-22.8-52.2-49.6s21.9-49.7,49.1-49.7c15.5,0,27.4,7.8,38.1,18.5l-63.5,62.7C586.9,323.9,596.7,327.4,607.7,327.4Zm-34.4-16.2,56.9-55.7c-7-5.5-15.9-10.1-25.1-10.1-22.3,0-40.2,18.8-40.2,41A40.1,40.1,0,0,0,573.3,311.2Z" fill="none"/>
    </clipPath>
    <clipPath id="clip-path-15" transform="translate(-189.6 -123.5)">
      <path id="The-h" d="M538.1,320.2v11.2c-5.2,3.5-11.6,4.6-16.8,4.6-16.7,0-25.9-12.7-25.9-27.4V277.4c0-19.3-10.1-32-27.2-32-19.6,0-33.7,17-33.7,34.9v53.1h-9V128.5h9V257.8c5.7-12.1,16.7-21.1,33.2-21.1,22.5,0,36.6,16.5,36.6,40.7v31.2c0,9.8,5.2,18.5,17.9,18.5C527.7,327.1,533.2,325.7,538.1,320.2Z" fill="none"/>
    </clipPath>
    <clipPath id="clip-path-16" transform="translate(-189.6 -123.5)">
      <path id="The-T" d="M328.2,212.8v79.1c0,23.4-16.7,44.1-41.2,44.1-10.7,0-21.7-2-30.9-8V317c8.6,7.8,19.6,10.4,30.9,10.4,19.3,0,32.6-17,32.6-35.5V212.8c0-33.2,13-64.7,46.7-75.6H247.7c-25.7,0-47.9,12.4-47.9,40.7,0,22.5,18.5,37.5,39.8,38.9l-.6,8.7c-25.6-1.5-48.2-20.5-48.2-47.6,0-33.2,26.3-49.4,56.9-49.4H396.1v8.7C352.2,137.2,328.2,171.5,328.2,212.8Z" fill="none"/>
    </clipPath>
  </defs>
  <title>ThePhotoAlphabetHandwriting</title>
  <g id="Alphabet-t-mask">
    <g clip-path="url(#clip-path)">
      <path id="Alphabet-t-path" d="M1347.5,519V658s4,31,41,15c0,0-94-78-85-82s87-2,87-2" transform="translate(-189.6 -123.5)" fill="none" stroke="#000" stroke-miterlimit="10" stroke-width="11"/>
    </g>
  </g>
  <g id="Alphabet-e-mask">
    <g clip-path="url(#clip-path-2)">
      <path id="Alphabet-e-path" d="M1214,671l72-69s-28-32-61-3-3,73,11,75,34,10,56-7" transform="translate(-189.6 -123.5)" fill="none" stroke="#000" stroke-miterlimit="10" stroke-width="10"/>
    </g>
  </g>
  <g id="Alphabet-b-mask">
    <g clip-path="url(#clip-path-3)">
      <path id="Alphabet-b-path" d="M1123,592s17,4,7,8c-12.6,5.1-10-8-10-8,3.2-12.6,18.2-4.4,28,2s30.3,37.6,4,69-62,10-71-5-6-52-6-52V471" transform="translate(-189.6 -123.5)" fill="none" stroke="#000" stroke-miterlimit="10" stroke-width="10"/>
    </g>
  </g>
  <g id="Alphabet-a2-mask">
    <g clip-path="url(#clip-path-4)">
      <path id="Alphabet-a2-path" d="M1003,581v60s-4,32-44.5,37.5c-1.3,1.6-56.9-8.2-42.3-63.1a11.9,11.9,0,0,1,.8-2c2.5-5.3,15.5-26.9,42-25.4a47.1,47.1,0,0,1,41,28l4,44s-.5,27.5,37.5,14.5L1035,666" transform="translate(-189.6 -123.5)" fill="none" stroke="#000" stroke-miterlimit="10" stroke-width="10"/>
    </g>
  </g>
  <g id="Alphabet-h-mask">
    <g clip-path="url(#clip-path-5)">
      <path id="Alphabet-h-path" d="M783,472V683l2.5-.5v-63s4-29,35-32,32,35,32,35v35s0,29,42,18l-7-2,7-3-8-3" transform="translate(-189.6 -123.5)" fill="none" stroke="#000" stroke-miterlimit="10" stroke-width="11"/>
    </g>
  </g>
  <g id="Alphabet-p-mask">
    <g clip-path="url(#clip-path-6)">
      <path id="Alphabet-p-path" d="M637.5,584l.8,58.7S651,681,686,679s45-46,40-57-19-42-59-32-29,82-29,82v77" transform="translate(-189.6 -123.5)" fill="none" stroke="#000" stroke-miterlimit="10" stroke-width="11"/>
    </g>
  </g>
  <g id="Alphabet-l-mask">
    <g clip-path="url(#clip-path-7)">
      <path id="Alphabet-l-path" d="M565,471V658s-1,26,40,19l-9-10" transform="translate(-189.6 -123.5)" fill="none" stroke="#000" stroke-miterlimit="10" stroke-width="12"/>
    </g>
  </g>
  <g id="Alphabet-A-mask">
    <g clip-path="url(#clip-path-8)">
      <path id="Alphabet-A-path" d="M402,684V566s3-38,24-48-40,93-75,65c0,0-25-17-14-59s71-51,84-47,64,4,73,69V657s0,30,40,20l-33-46H368" transform="translate(-189.6 -123.5)" fill="none" stroke="#000" stroke-miterlimit="10" stroke-width="12"/>
    </g>
  </g>
  <g id="Photo-o2-mask">
    <g clip-path="url(#clip-path-9)">
      <path id="Photo-o2-path" d="M1411.5,260.5s7.7-2.4,8.5.5c1.5,5.5-1.5,11.1-9.5,5.5-6.1-4.3-.2-13.3,5.5-13.5s21.5,13.5,15.5,44.5c-5,25.8-33.5,37.5-47.5,34.5-10.8-2.3-41-13-40-48s35-42.8,42-43c17.5-.5,24.5,6.5,32.5,10.5S1435,259,1435,259" transform="translate(-189.6 -123.5)" fill="none" stroke="#000" stroke-miterlimit="10" stroke-width="10"/>
    </g>
  </g>
  <g id="Photo-t-mask">
    <g clip-path="url(#clip-path-10)">
      <path id="Photo-t-path" d="M1275,174V313s4,31,41,15c0,0-94-78-85-82s87-2,87-2" transform="translate(-189.6 -123.5)" fill="none" stroke="#000" stroke-miterlimit="10" stroke-width="11"/>
    </g>
  </g>
  <g id="Photo-o1-mask">
    <g clip-path="url(#clip-path-11)">
      <path id="Photo-o1-path" d="M1190.5,260.5s7.7-2.4,8.5.5c1.5,5.5-1.5,11.1-9.5,5.5-6.1-4.3-.2-13.3,5.5-13.5s21.5,13.5,15.5,44.5c-5,25.8-33.5,37.5-47.5,34.5-10.8-2.3-41-13-40-48s35-42.8,42-43c17.5-.5,24.5,6.5,32.5,10.5S1214,259,1214,259" transform="translate(-189.6 -123.5)" fill="none" stroke="#000" stroke-miterlimit="10" stroke-width="10"/>
    </g>
  </g>
  <g id="Photo-h-mask">
    <g clip-path="url(#clip-path-12)">
      <path id="Photo-h-path" d="M992,126V337l2.5-.5v-63s4-29,35-32,32,35,32,35v35s0,29,42,18l-7-2,7-3-8-3" transform="translate(-189.6 -123.5)" fill="none" stroke="#000" stroke-miterlimit="10" stroke-width="11"/>
    </g>
  </g>
  <g id="Photo-p-mask">
    <g clip-path="url(#clip-path-13)">
      <path id="Photo-P-path" d="M767,252s-43-39,6-97c0,0,40-35,99-23,0,0,48,9,62,49s-16,71-21,75-27,20-64,10-36-11-36-11-16-94,14-94V310s-2,35-41,15" transform="translate(-189.6 -123.5)" fill="none" stroke="#000" stroke-miterlimit="10" stroke-width="12"/>
    </g>
  </g>
  <g id="The-e-mask">
    <g clip-path="url(#clip-path-14)">
      <path id="The-e-path" d="M567,323l70-68s-30-33-67,2c0,0-23,29,1,58,0,0,23,31,69,8" transform="translate(-189.6 -123.5)" fill="none" stroke="#000" stroke-miterlimit="10" stroke-width="11"/>
    </g>
  </g>
  <g id="The-h-mask">
    <g clip-path="url(#clip-path-15)">
      <path id="The-h-path" d="M430,125V336l2.5-.5v-63s4-29,35-32,32,35,32,35v35s0,29,42,18l-7-2,7-3-8-3" transform="translate(-189.6 -123.5)" fill="none" stroke="#000" stroke-miterlimit="10" stroke-width="11"/>
    </g>
  </g>
  <g id="The-T-mask">
    <g clip-path="url(#clip-path-16)">
      <path id="The-T-path" d="M242.5,222.5s-49-4-47-50,66-40,66-40h139s-73,0-76,74v91s-10,58-73,24" transform="translate(-189.6 -123.5)" fill="none" stroke="#000" stroke-miterlimit="10" stroke-width="11.75"/>
    </g>
  </g>
</svg>
